# xmcd
#
# Track frame offsets: 
#        150
#        16155
#        34357
#        50700
#        65355
#        83697
#        103057
#        115940
#        136407
#        153762
#        171720
#        188172
#
# Disc length: 2719 seconds
#
# Revision: 4
# Processed by: cddbd v1.5.2PL0 Copyright (c) Steve Scherf et al.
# Submitted via: ExactAudioCopyFreeDBPlugin 1.0
#
DISCID=a10a9d0c
DTITLE=Bloodbath - Nightmares Made Flesh (2008 Reissue)
DYEAR=2004
DGENRE=Death Metal
TTITLE0=Cancer Of The Soul
TTITLE1=Brave New Hell
TTITLE2=Soul Evisceration
TTITLE3=Outnumbering The Day
TTITLE4=Feeding The Undead
TTITLE5=Eaten
TTITLE6=Bastard Son Of God
TTITLE7=Year Of The Cadaver Race
TTITLE8=The Ascension
TTITLE9=Draped In Disease
TTITLE10=Stillborn Saviour
TTITLE11=Blood Vortex
EXTD=YEAR: 2004
EXTT0=
EXTT1=
EXTT2=
EXTT3=
EXTT4=
EXTT5=
EXTT6=
EXTT7=
EXTT8=
EXTT9=
EXTT10=
EXTT11=
PLAYORDER=
